<svg id="Layer_1" data-name="Layer 1" xmlns="http://www.w3.org/2000/svg" width="690" height="350" viewBox="0 0 690 350">
  <title>bg_QuanLyHoaDon</title>
  <g>
    <line id="Line_1874" data-name="Line 1874" x1="431" y1="167" x2="431" y2="130" style="fill: none;stroke: #b4c8b1;stroke-width: 2px"/>
    <path id="Path_67843" data-name="Path 67843" d="M414,167H662" style="fill: none;stroke: #b4c8b1;stroke-width: 2px"/>
    <path id="Path_67854" data-name="Path 67854" d="M134,167H284" style="fill: none;stroke: #b4c8b1;stroke-width: 2px"/>
    <path id="Path_67835" data-name="Path 67835" d="M426,135l5-5,5,5" style="fill: none;stroke: #b4c8b1;stroke-miterlimit: 10;stroke-width: 2px"/>
    <g id="Group_35937" data-name="Group 35937">
      <line id="Line_1875" data-name="Line 1875" x1="225" y1="167" x2="225" y2="202" style="fill: none;stroke: #b4c8b1;stroke-width: 2px"/>
      <path id="Path_67836" data-name="Path 67836" d="M230,197l-5,5-5-5" style="fill: none;stroke: #b4c8b1;stroke-miterlimit: 10;stroke-width: 2px"/>
    </g>
    <g id="Group_35939" data-name="Group 35939">
      <line id="Line_1875-2" data-name="Line 1875-2" x1="617" y1="167" x2="617" y2="202" style="fill: none;stroke: #b4c8b1;stroke-width: 2px"/>
      <path id="Path_67836-2" data-name="Path 67836-2" d="M622,197l-5,5-5-5" style="fill: none;stroke: #b4c8b1;stroke-miterlimit: 10;stroke-width: 2px"/>
    </g>
    <g id="Group_35938" data-name="Group 35938">
      <line id="Line_1875-3" data-name="Line 1875-3" x1="565" y1="168" x2="565" y2="133" style="fill: none;stroke: #b4c8b1;stroke-width: 2px"/>
      <path id="Path_67836-3" data-name="Path 67836-3" d="M560,138l5-5,5,5" style="fill: none;stroke: #b4c8b1;stroke-miterlimit: 10;stroke-width: 2px"/>
    </g>
    <line id="Line_1875-4" data-name="Line 1875-4" x1="253" y1="168" x2="253" y2="133" style="fill: none;stroke: #b4c8b1;stroke-width: 2px"/>
    <path id="Path_67836-4" data-name="Path 67836-4" d="M248,138l5-5,5,5" style="fill: none;stroke: #b4c8b1;stroke-miterlimit: 10;stroke-width: 2px"/>
    <path id="Path_67834" data-name="Path 67834" d="M657,162l5,5-5,5" style="fill: none;stroke: #b4c8b1;stroke-miterlimit: 10;stroke-width: 2px"/>
    <g id="Group_27201" data-name="Group 27201">
      <rect id="Rectangle_15452" data-name="Rectangle 15452" x="325" y="131" width="48" height="48" style="fill: #fff;opacity: 0"/>
      <g id="Group_27221" data-name="Group 27221">
        <line id="Line_1035" data-name="Line 1035" x1="340" y1="176" x2="358" y2="176" style="fill: none;stroke: #2ca01c;stroke-linecap: round;stroke-linejoin: round;stroke-width: 2px"/>
        <line id="Line_1036" data-name="Line 1036" x1="344" y1="170" x2="344" y2="176" style="fill: none;stroke: #2ca01c;stroke-linecap: round;stroke-linejoin: round;stroke-width: 2px"/>
        <line id="Line_1037" data-name="Line 1037" x1="354" y1="170" x2="354" y2="176" style="fill: none;stroke: #2ca01c;stroke-linecap: round;stroke-linejoin: round;stroke-width: 2px"/>
        <rect id="Rectangle_15644" data-name="Rectangle 15644" x="328" y="147" width="42" height="23" style="fill: #47b138;stroke: #2ca01c;stroke-linecap: round;stroke-linejoin: round;stroke-width: 2px"/>
        <path id="Path_29893" data-name="Path 29893" d="M358,166H332V134h20l6,6Z" style="fill: #fb0;stroke: #e59033;stroke-linecap: round;stroke-linejoin: round;stroke-width: 2px"/>
        <path id="Path_29894" data-name="Path 29894" d="M352,134l6,6h-6Z" style="fill: #fb0;stroke: #e59033;stroke-linecap: round;stroke-linejoin: round;stroke-width: 2px"/>
        <line id="Line_1038" data-name="Line 1038" x1="335" y1="142" x2="337" y2="142" style="fill: none;stroke: #fff;stroke-linejoin: round;stroke-width: 2px"/>
        <line id="Line_1039" data-name="Line 1039" x1="335" y1="147" x2="337" y2="147" style="fill: none;stroke: #fff;stroke-linejoin: round;stroke-width: 2px"/>
        <line id="Line_1040" data-name="Line 1040" x1="335" y1="152" x2="337" y2="152" style="fill: none;stroke: #fff;stroke-linejoin: round;stroke-width: 2px"/>
        <line id="Line_1041" data-name="Line 1041" x1="339" y1="142" x2="345" y2="142" style="fill: none;stroke: #fff;stroke-linejoin: round;stroke-width: 2px"/>
        <line id="Line_1042" data-name="Line 1042" x1="339" y1="147" x2="345" y2="147" style="fill: none;stroke: #fff;stroke-linejoin: round;stroke-width: 2px"/>
        <line id="Line_1043" data-name="Line 1043" x1="339" y1="152" x2="345" y2="152" style="fill: none;stroke: #fff;stroke-linejoin: round;stroke-width: 2px"/>
        <circle id="Ellipse_3830" data-name="Ellipse 3830" cx="357.54" cy="153.24" r="9" style="fill: #fb0;stroke: #fff;stroke-linecap: round;stroke-linejoin: round;stroke-width: 2px"/>
        <g id="Group_26933" data-name="Group 26933">
          <g id="Group_26931" data-name="Group 26931">
            <path id="Path_29895" data-name="Path 29895" d="M361.54,153.24a1,1,0,0,1-.3.71l-2,2a1,1,0,0,1-1.41,0,1,1,0,0,1,0-1.39l1.29-1.29L357.83,152a1,1,0,0,1,0-1.42,1,1,0,0,1,1.38,0l2,2A1,1,0,0,1,361.54,153.24Z" style="fill: #fff"/>
          </g>
          <g id="Group_26932" data-name="Group 26932">
            <path id="Path_29896" data-name="Path 29896" d="M361.54,153a1,1,0,0,1-1,1h-6a1,1,0,0,1,0-2h6A1,1,0,0,1,361.54,153Z" style="fill: #fff"/>
          </g>
        </g>
      </g>
    </g>
    <g id="Group_27201-2" data-name="Group 27201-2">
      <rect id="Rectangle_15452-2" data-name="Rectangle 15452-2" x="541" y="41" width="48" height="48" style="fill: #fff;opacity: 0"/>
      <g id="Group_27221-2" data-name="Group 27221-2">
        <line id="Line_1035-2" data-name="Line 1035-2" x1="556" y1="86" x2="574" y2="86" style="fill: none;stroke: #2ca01c;stroke-linecap: round;stroke-linejoin: round;stroke-width: 2px"/>
        <line id="Line_1036-2" data-name="Line 1036-2" x1="560" y1="80" x2="560" y2="86" style="fill: none;stroke: #2ca01c;stroke-linecap: round;stroke-linejoin: round;stroke-width: 2px"/>
        <line id="Line_1037-2" data-name="Line 1037-2" x1="570" y1="80" x2="570" y2="86" style="fill: none;stroke: #2ca01c;stroke-linecap: round;stroke-linejoin: round;stroke-width: 2px"/>
        <rect id="Rectangle_15644-2" data-name="Rectangle 15644-2" x="544" y="57" width="42" height="23" style="fill: #47b138;stroke: #2ca01c;stroke-linecap: round;stroke-linejoin: round;stroke-width: 2px"/>
        <path id="Path_29893-2" data-name="Path 29893-2" d="M574,76H548V44h20l6,6Z" style="fill: #fb0;stroke: #e59033;stroke-linecap: round;stroke-linejoin: round;stroke-width: 2px"/>
        <path id="Path_29894-2" data-name="Path 29894-2" d="M568,44l6,6h-6Z" style="fill: #fb0;stroke: #e59033;stroke-linecap: round;stroke-linejoin: round;stroke-width: 2px"/>
        <line id="Line_1038-2" data-name="Line 1038-2" x1="551" y1="52" x2="553" y2="52" style="fill: none;stroke: #fff;stroke-linejoin: round;stroke-width: 2px"/>
        <line id="Line_1039-2" data-name="Line 1039-2" x1="551" y1="57" x2="553" y2="57" style="fill: none;stroke: #fff;stroke-linejoin: round;stroke-width: 2px"/>
        <line id="Line_1040-2" data-name="Line 1040-2" x1="551" y1="62" x2="553" y2="62" style="fill: none;stroke: #fff;stroke-linejoin: round;stroke-width: 2px"/>
        <line id="Line_1041-2" data-name="Line 1041-2" x1="555" y1="52" x2="561" y2="52" style="fill: none;stroke: #fff;stroke-linejoin: round;stroke-width: 2px"/>
        <line id="Line_1042-2" data-name="Line 1042-2" x1="555" y1="57" x2="561" y2="57" style="fill: none;stroke: #fff;stroke-linejoin: round;stroke-width: 2px"/>
        <line id="Line_1043-2" data-name="Line 1043-2" x1="555" y1="62" x2="561" y2="62" style="fill: none;stroke: #fff;stroke-linejoin: round;stroke-width: 2px"/>
        <circle id="Ellipse_3830-2" data-name="Ellipse 3830-2" cx="573.54" cy="63.24" r="9" style="fill: #fb0;stroke: #fff;stroke-linecap: round;stroke-linejoin: round;stroke-width: 2px"/>
        <g id="ic_delete_forever_24px" data-name="ic delete forever 24px">
          <g id="Group_35965" data-name="Group 35965">
            <path id="Path_67862" data-name="Path 67862" d="M570,67.86A1.15,1.15,0,0,0,571.17,69h4.66A1.15,1.15,0,0,0,577,67.86V61h-7Zm1.51-4.55.81-.8,1.22,1.21,1.21-1.21.8.8-1.21,1.21,1.21,1.22-.8.8-1.21-1.21-1.21,1.21-.81-.8,1.21-1.22Zm4-4.31L575,58h-2.86l-.57,1H570v1h8V59Z" style="fill: #fff"/>
          </g>
        </g>
      </g>
    </g>
    <g id="Group_27201-3" data-name="Group 27201-3">
      <rect id="Rectangle_15452-3" data-name="Rectangle 15452-3" x="201" y="222" width="48" height="48" style="fill: #fff;opacity: 0"/>
      <g id="Group_27221-3" data-name="Group 27221-3">
        <line id="Line_1035-3" data-name="Line 1035-3" x1="216" y1="267" x2="234" y2="267" style="fill: none;stroke: #2ca01c;stroke-linecap: round;stroke-linejoin: round;stroke-width: 2px"/>
        <line id="Line_1036-3" data-name="Line 1036-3" x1="220" y1="261" x2="220" y2="267" style="fill: none;stroke: #2ca01c;stroke-linecap: round;stroke-linejoin: round;stroke-width: 2px"/>
        <line id="Line_1037-3" data-name="Line 1037-3" x1="230" y1="261" x2="230" y2="267" style="fill: none;stroke: #2ca01c;stroke-linecap: round;stroke-linejoin: round;stroke-width: 2px"/>
        <rect id="Rectangle_15644-3" data-name="Rectangle 15644-3" x="204" y="238" width="42" height="23" style="fill: #47b138;stroke: #2ca01c;stroke-linecap: round;stroke-linejoin: round;stroke-width: 2px"/>
        <path id="Path_29893-3" data-name="Path 29893-3" d="M234,257H208V225h20l6,6Z" style="fill: #fb0;stroke: #e59033;stroke-linecap: round;stroke-linejoin: round;stroke-width: 2px"/>
        <path id="Path_29894-3" data-name="Path 29894-3" d="M228,225l6,6h-6Z" style="fill: #fb0;stroke: #e59033;stroke-linecap: round;stroke-linejoin: round;stroke-width: 2px"/>
        <line id="Line_1038-3" data-name="Line 1038-3" x1="211" y1="233" x2="213" y2="233" style="fill: none;stroke: #fff;stroke-linejoin: round;stroke-width: 2px"/>
        <line id="Line_1039-3" data-name="Line 1039-3" x1="211" y1="238" x2="213" y2="238" style="fill: none;stroke: #fff;stroke-linejoin: round;stroke-width: 2px"/>
        <line id="Line_1040-3" data-name="Line 1040-3" x1="211" y1="243" x2="213" y2="243" style="fill: none;stroke: #fff;stroke-linejoin: round;stroke-width: 2px"/>
        <line id="Line_1041-3" data-name="Line 1041-3" x1="215" y1="233" x2="221" y2="233" style="fill: none;stroke: #fff;stroke-linejoin: round;stroke-width: 2px"/>
        <line id="Line_1042-3" data-name="Line 1042-3" x1="215" y1="238" x2="221" y2="238" style="fill: none;stroke: #fff;stroke-linejoin: round;stroke-width: 2px"/>
        <line id="Line_1043-3" data-name="Line 1043-3" x1="215" y1="243" x2="221" y2="243" style="fill: none;stroke: #fff;stroke-linejoin: round;stroke-width: 2px"/>
        <circle id="Ellipse_3830-3" data-name="Ellipse 3830-3" cx="233.54" cy="244.24" r="9" style="fill: #fb0;stroke: #fff;stroke-linecap: round;stroke-linejoin: round;stroke-width: 2px"/>
        <g id="Group_26933-2" data-name="Group 26933-2">
          <g id="Group_26932-2" data-name="Group 26932-2">
            <path id="Path_29896-2" data-name="Path 29896-2" d="M236.37,247.07a1,1,0,0,1-1.42,0l-4.24-4.25a1,1,0,0,1,1.41-1.41l4.25,4.24A1,1,0,0,1,236.37,247.07Z" style="fill: #fff"/>
          </g>
          <g id="Group_35961" data-name="Group 35961">
            <path id="Path_29896-3" data-name="Path 29896-3" d="M230.71,247.07a1,1,0,0,1,0-1.42l4.24-4.24a1,1,0,0,1,1.42,0,1,1,0,0,1,0,1.41l-4.25,4.25A1,1,0,0,1,230.71,247.07Z" style="fill: #fff"/>
          </g>
        </g>
      </g>
    </g>
    <g id="Group_35960" data-name="Group 35960">
      <rect id="Rectangle_15452-4" data-name="Rectangle 15452-4" x="54" y="230" width="48" height="48" style="fill: #fff;opacity: 0"/>
      <g id="Group_27221-4" data-name="Group 27221-4">
        <line id="Line_1035-4" data-name="Line 1035-4" x1="69" y1="275" x2="87" y2="275" style="fill: none;stroke: #2ca01c;stroke-linecap: round;stroke-linejoin: round;stroke-width: 2px"/>
        <line id="Line_1036-4" data-name="Line 1036-4" x1="73" y1="269" x2="73" y2="275" style="fill: none;stroke: #2ca01c;stroke-linecap: round;stroke-linejoin: round;stroke-width: 2px"/>
        <line id="Line_1037-4" data-name="Line 1037-4" x1="83" y1="269" x2="83" y2="275" style="fill: none;stroke: #2ca01c;stroke-linecap: round;stroke-linejoin: round;stroke-width: 2px"/>
        <rect id="Rectangle_15644-4" data-name="Rectangle 15644-4" x="57" y="246" width="42" height="23" style="fill: #47b138;stroke: #2ca01c;stroke-linecap: round;stroke-linejoin: round;stroke-width: 2px"/>
        <path id="Path_29893-4" data-name="Path 29893-4" d="M87,265H61V233H81l6,6Z" style="fill: #fb0;stroke: #e59033;stroke-linecap: round;stroke-linejoin: round;stroke-width: 2px"/>
        <path id="Path_29894-4" data-name="Path 29894-4" d="M81,233l6,6H81Z" style="fill: #fb0;stroke: #e59033;stroke-linecap: round;stroke-linejoin: round;stroke-width: 2px"/>
        <line id="Line_1038-4" data-name="Line 1038-4" x1="64" y1="241" x2="66" y2="241" style="fill: none;stroke: #fff;stroke-linejoin: round;stroke-width: 2px"/>
        <line id="Line_1039-4" data-name="Line 1039-4" x1="64" y1="246" x2="66" y2="246" style="fill: none;stroke: #fff;stroke-linejoin: round;stroke-width: 2px"/>
        <line id="Line_1040-4" data-name="Line 1040-4" x1="64" y1="251" x2="66" y2="251" style="fill: none;stroke: #fff;stroke-linejoin: round;stroke-width: 2px"/>
        <line id="Line_1041-4" data-name="Line 1041-4" x1="68" y1="241" x2="74" y2="241" style="fill: none;stroke: #fff;stroke-linejoin: round;stroke-width: 2px"/>
        <line id="Line_1042-4" data-name="Line 1042-4" x1="68" y1="246" x2="74" y2="246" style="fill: none;stroke: #fff;stroke-linejoin: round;stroke-width: 2px"/>
        <line id="Line_1043-4" data-name="Line 1043-4" x1="68" y1="251" x2="74" y2="251" style="fill: none;stroke: #fff;stroke-linejoin: round;stroke-width: 2px"/>
        <circle id="Ellipse_3830-4" data-name="Ellipse 3830-4" cx="86.54" cy="252.24" r="9" style="fill: #fb0;stroke: #fff;stroke-linecap: round;stroke-linejoin: round;stroke-width: 2px"/>
        <g id="_24px_speaker" data-name=" 24px speaker">
          <g id="Group_35962" data-name="Group 35962">
            <path id="Path_67855" data-name="Path 67855" d="M88.74,247.56a.49.49,0,0,0-.51,0L84.36,250H82.58a2,2,0,0,0-2,1.35A2,2,0,0,0,82.5,254h1.86l3.88,2.42a.49.49,0,0,0,.68-.15A.53.53,0,0,0,89,256v-8A.51.51,0,0,0,88.74,247.56Z" style="fill: #fff"/>
            <path id="Path_67856" data-name="Path 67856" d="M91,251h2v1H91Z" style="fill: #fff"/>
            <path id="Path_67857" data-name="Path 67857" d="M89.75,249.31l1.73-1,.5.86-1.73,1Z" style="fill: #fff"/>
            <path id="Path_67858" data-name="Path 67858" d="M89.75,254.17l.5-.86,1.73,1-.5.86Z" style="fill: #fff"/>
            <path id="Path_67859" data-name="Path 67859" d="M84.39,255H82.63L84,258a.8.8,0,0,0,1.47-.65h0Z" style="fill: #fff"/>
          </g>
        </g>
      </g>
    </g>
    <g id="Group_27201-4" data-name="Group 27201-4">
      <rect id="Rectangle_15452-5" data-name="Rectangle 15452-5" x="229" y="41" width="48" height="48" style="fill: #fff;opacity: 0"/>
      <g id="Group_27221-5" data-name="Group 27221-5">
        <line id="Line_1035-5" data-name="Line 1035-5" x1="244" y1="86" x2="262" y2="86" style="fill: none;stroke: #2ca01c;stroke-linecap: round;stroke-linejoin: round;stroke-width: 2px"/>
        <line id="Line_1036-5" data-name="Line 1036-5" x1="248" y1="80" x2="248" y2="86" style="fill: none;stroke: #2ca01c;stroke-linecap: round;stroke-linejoin: round;stroke-width: 2px"/>
        <line id="Line_1037-5" data-name="Line 1037-5" x1="258" y1="80" x2="258" y2="86" style="fill: none;stroke: #2ca01c;stroke-linecap: round;stroke-linejoin: round;stroke-width: 2px"/>
        <rect id="Rectangle_15644-5" data-name="Rectangle 15644-5" x="232" y="57" width="42" height="23" style="fill: #47b138;stroke: #2ca01c;stroke-linecap: round;stroke-linejoin: round;stroke-width: 2px"/>
        <path id="Path_29893-5" data-name="Path 29893-5" d="M262,76H236V44h20l6,6Z" style="fill: #fb0;stroke: #e59033;stroke-linecap: round;stroke-linejoin: round;stroke-width: 2px"/>
        <path id="Path_29894-5" data-name="Path 29894-5" d="M256,44l6,6h-6Z" style="fill: #fb0;stroke: #e59033;stroke-linecap: round;stroke-linejoin: round;stroke-width: 2px"/>
        <line id="Line_1038-5" data-name="Line 1038-5" x1="239" y1="52" x2="241" y2="52" style="fill: none;stroke: #fff;stroke-linejoin: round;stroke-width: 2px"/>
        <line id="Line_1039-5" data-name="Line 1039-5" x1="239" y1="57" x2="241" y2="57" style="fill: none;stroke: #fff;stroke-linejoin: round;stroke-width: 2px"/>
        <line id="Line_1040-5" data-name="Line 1040-5" x1="239" y1="62" x2="241" y2="62" style="fill: none;stroke: #fff;stroke-linejoin: round;stroke-width: 2px"/>
        <line id="Line_1041-5" data-name="Line 1041-5" x1="243" y1="52" x2="249" y2="52" style="fill: none;stroke: #fff;stroke-linejoin: round;stroke-width: 2px"/>
        <line id="Line_1042-5" data-name="Line 1042-5" x1="243" y1="57" x2="249" y2="57" style="fill: none;stroke: #fff;stroke-linejoin: round;stroke-width: 2px"/>
        <line id="Line_1043-5" data-name="Line 1043-5" x1="243" y1="62" x2="249" y2="62" style="fill: none;stroke: #fff;stroke-linejoin: round;stroke-width: 2px"/>
        <circle id="Ellipse_3830-5" data-name="Ellipse 3830-5" cx="261.54" cy="63.24" r="9" style="fill: #fb0;stroke: #fff;stroke-linecap: round;stroke-linejoin: round;stroke-width: 2px"/>
        <g id="_24px_speaker-2" data-name=" 24px speaker-2">
          <g id="Group_35962-2" data-name="Group 35962-2">
            <path id="Path_67855-2" data-name="Path 67855-2" d="M263.74,58.56a.49.49,0,0,0-.51,0L259.36,61h-1.78a2,2,0,0,0-2,1.35A2,2,0,0,0,257.5,65h1.86l3.88,2.42a.49.49,0,0,0,.68-.15A.53.53,0,0,0,264,67V59A.51.51,0,0,0,263.74,58.56Z" style="fill: #fff"/>
            <path id="Path_67856-2" data-name="Path 67856-2" d="M266,62h2v1h-2Z" style="fill: #fff"/>
            <path id="Path_67857-2" data-name="Path 67857-2" d="M264.75,60.31l1.73-1,.5.86-1.73,1Z" style="fill: #fff"/>
            <path id="Path_67858-2" data-name="Path 67858-2" d="M264.75,65.17l.5-.86,1.73,1-.5.86Z" style="fill: #fff"/>
            <path id="Path_67859-2" data-name="Path 67859-2" d="M259.39,66h-1.76L259,69a.8.8,0,1,0,1.47-.65h0Z" style="fill: #fff"/>
          </g>
        </g>
      </g>
    </g>
    <g id="Group_27209" data-name="Group 27209">
      <rect id="Rectangle_15422" data-name="Rectangle 15422" x="594" y="222" width="48" height="48" style="fill: #fff;fill-opacity: 0"/>
      <g id="Group_27223" data-name="Group 27223">
        <rect id="Rectangle_15648" data-name="Rectangle 15648" x="603" y="225" width="30" height="4" style="fill: #fb0;stroke: #e59033;stroke-linecap: round;stroke-linejoin: round;stroke-width: 2px"/>
        <path id="Path_29906" data-name="Path 29906" d="M603,249h-4a2,2,0,0,1-2-2V231a2,2,0,0,1,2-2h38a2,2,0,0,1,2,2v16a2,2,0,0,1-2,2h-4" style="fill: #47b138;stroke: #2ca01c;stroke-linecap: round;stroke-linejoin: round;stroke-width: 2px"/>
        <line id="Line_1062" data-name="Line 1062" x1="626" y1="233" x2="635" y2="233" style="fill: none;stroke: #fff;stroke-linecap: round;stroke-linejoin: round;stroke-width: 2px"/>
        <rect id="Rectangle_15649" data-name="Rectangle 15649" x="603" y="243" width="30" height="24" style="fill: #fb0;stroke: #e59033;stroke-linecap: round;stroke-linejoin: round;stroke-width: 2px"/>
        <line id="Line_1063" data-name="Line 1063" x1="601" y1="243" x2="635" y2="243" style="fill: none;stroke: #2ca01c;stroke-linecap: round;stroke-linejoin: round;stroke-width: 2px"/>
        <line id="Line_1064" data-name="Line 1064" x1="609" y1="250" x2="613" y2="250" style="fill: none;stroke: #fff;stroke-linecap: round;stroke-linejoin: round;stroke-width: 2px"/>
        <line id="Line_1065" data-name="Line 1065" x1="609" y1="254" x2="619" y2="254" style="fill: none;stroke: #fff;stroke-linecap: round;stroke-linejoin: round;stroke-width: 2px"/>
        <line id="Line_1066" data-name="Line 1066" x1="609" y1="258" x2="623" y2="258" style="fill: none;stroke: #fff;stroke-linecap: round;stroke-linejoin: round;stroke-width: 2px"/>
      </g>
    </g>
    <g id="Group_27211" data-name="Group 27211">
      <rect id="Rectangle_15452-6" data-name="Rectangle 15452-6" x="406" y="41" width="48" height="48" style="fill: #fff;opacity: 0"/>
      <g id="Group_27222" data-name="Group 27222">
        <line id="Line_1056" data-name="Line 1056" x1="421" y1="86" x2="439" y2="86" style="fill: none;stroke: #2ca01c;stroke-linecap: round;stroke-linejoin: round;stroke-width: 2px"/>
        <line id="Line_1057" data-name="Line 1057" x1="425" y1="80" x2="425" y2="86" style="fill: none;stroke: #2ca01c;stroke-linecap: round;stroke-linejoin: round;stroke-width: 2px"/>
        <line id="Line_1058" data-name="Line 1058" x1="435" y1="80" x2="435" y2="86" style="fill: none;stroke: #2ca01c;stroke-linecap: round;stroke-linejoin: round;stroke-width: 2px"/>
        <rect id="Rectangle_15647" data-name="Rectangle 15647" x="409" y="57" width="42" height="23" style="fill: #47b138;stroke: #2ca01c;stroke-linecap: round;stroke-linejoin: round;stroke-width: 2px"/>
        <path id="Path_29903" data-name="Path 29903" d="M443,76H417V44h20l6,6Z" style="fill: #fb0;stroke: #e59033;stroke-linecap: round;stroke-linejoin: round;stroke-width: 2px"/>
        <path id="Path_29904" data-name="Path 29904" d="M437,44l6,6h-6Z" style="fill: #fb0;stroke: #e59033;stroke-linecap: round;stroke-linejoin: round;stroke-width: 2px"/>
        <g id="Group_26937" data-name="Group 26937">
          <path id="Path_29905" data-name="Path 29905" d="M435.47,59.37l-4,10a1,1,0,0,1-.93.63h-.08a1,1,0,0,1-.89-.78l-.86-3.69,2.18-2.18a.5.5,0,0,0-.7-.7L428,64.83,424.32,64a1,1,0,0,1-.75-1.2,1,1,0,0,1,.6-.7l10-4a1,1,0,0,1,1.3.56A1,1,0,0,1,435.47,59.37Z" style="fill: #fff"/>
          <line id="Line_1059" data-name="Line 1059" x1="424.54" y1="66.24" x2="422.54" y2="68.24" style="fill: none;stroke: #fff;stroke-linecap: round;stroke-linejoin: round"/>
          <line id="Line_1060" data-name="Line 1060" x1="425.04" y1="68.74" x2="422.04" y2="71.74" style="fill: none;stroke: #fff;stroke-linecap: round;stroke-linejoin: round"/>
          <line id="Line_1061" data-name="Line 1061" x1="427.54" y1="69.24" x2="425.54" y2="71.24" style="fill: none;stroke: #fff;stroke-linecap: round;stroke-linejoin: round"/>
        </g>
        <g id="Group_26938" data-name="Group 26938" style="opacity: 0.5">
          <path id="Path_11120-2" data-name="Path 11120-2" d="M420,49h14v2H420Z" style="fill: #fff"/>
          <path id="Path_11120-2-2" data-name="Path 11120-2-2" d="M420,55h6v2h-6Z" style="fill: #fff"/>
        </g>
      </g>
    </g>
    <line id="Line_1203" data-name="Line 1203" x1="154" y1="71" x2="154" y2="267" style="fill: none;stroke: #b4c8b1;stroke-width: 2px"/>
    <line id="Line_1212" data-name="Line 1212" x1="134.04" y1="266.74" x2="154.04" y2="266.74" style="fill: none;stroke: #b4c8b1;stroke-width: 2px"/>
    <line id="Line_1213" data-name="Line 1213" x1="134.04" y1="71.74" x2="154.04" y2="71.74" style="fill: none;stroke: #b4c8b1;stroke-width: 2px"/>
    <g id="Group_35957" data-name="Group 35957">
      <rect id="Rectangle_15452-7" data-name="Rectangle 15452-7" x="50" y="30" width="48" height="48" style="fill: #fff;opacity: 0"/>
      <g id="Group_27221-6" data-name="Group 27221-6">
        <line id="Line_1035-6" data-name="Line 1035-6" x1="65" y1="75" x2="83" y2="75" style="fill: none;stroke: #2ca01c;stroke-linecap: round;stroke-linejoin: round;stroke-width: 2px"/>
        <line id="Line_1036-6" data-name="Line 1036-6" x1="69" y1="69" x2="69" y2="75" style="fill: none;stroke: #2ca01c;stroke-linecap: round;stroke-linejoin: round;stroke-width: 2px"/>
        <line id="Line_1037-6" data-name="Line 1037-6" x1="79" y1="69" x2="79" y2="75" style="fill: none;stroke: #2ca01c;stroke-linecap: round;stroke-linejoin: round;stroke-width: 2px"/>
        <rect id="Rectangle_15644-6" data-name="Rectangle 15644-6" x="53" y="46" width="42" height="23" style="fill: #47b138;stroke: #2ca01c;stroke-linecap: round;stroke-linejoin: round;stroke-width: 2px"/>
        <path id="Path_29893-6" data-name="Path 29893-6" d="M83,65H57V33H77l6,6Z" style="fill: #fb0;stroke: #e59033;stroke-linecap: round;stroke-linejoin: round;stroke-width: 2px"/>
        <path id="Path_29894-6" data-name="Path 29894-6" d="M77,33l6,6H77Z" style="fill: #fb0;stroke: #e59033;stroke-linecap: round;stroke-linejoin: round;stroke-width: 2px"/>
        <line id="Line_1038-6" data-name="Line 1038-6" x1="60" y1="41" x2="62" y2="41" style="fill: none;stroke: #fff;stroke-linejoin: round;stroke-width: 2px"/>
        <line id="Line_1039-6" data-name="Line 1039-6" x1="60" y1="46" x2="62" y2="46" style="fill: none;stroke: #fff;stroke-linejoin: round;stroke-width: 2px"/>
        <line id="Line_1040-6" data-name="Line 1040-6" x1="60" y1="51" x2="62" y2="51" style="fill: none;stroke: #fff;stroke-linejoin: round;stroke-width: 2px"/>
        <line id="Line_1041-6" data-name="Line 1041-6" x1="64" y1="41" x2="70" y2="41" style="fill: none;stroke: #fff;stroke-linejoin: round;stroke-width: 2px"/>
        <line id="Line_1042-6" data-name="Line 1042-6" x1="64" y1="46" x2="70" y2="46" style="fill: none;stroke: #fff;stroke-linejoin: round;stroke-width: 2px"/>
        <line id="Line_1043-6" data-name="Line 1043-6" x1="64" y1="51" x2="70" y2="51" style="fill: none;stroke: #fff;stroke-linejoin: round;stroke-width: 2px"/>
        <circle id="Ellipse_3830-6" data-name="Ellipse 3830-6" cx="82.54" cy="52.24" r="9" style="fill: #fb0;stroke: #fff;stroke-linecap: round;stroke-linejoin: round;stroke-width: 2px"/>
        <g id="Group_26933-3" data-name="Group 26933-3">
          <g id="Group_26932-3" data-name="Group 26932-3">
            <path id="Path_29896-4" data-name="Path 29896-4" d="M86.54,52a1,1,0,0,1-1,1h-6a1,1,0,0,1,0-2h6A1,1,0,0,1,86.54,52Z" style="fill: #fff"/>
          </g>
          <g id="Group_35958" data-name="Group 35958">
            <path id="Path_29896-5" data-name="Path 29896-5" d="M83,56.24a1,1,0,0,1-1-1v-6a1,1,0,0,1,2,0v6A1,1,0,0,1,83,56.24Z" style="fill: #fff"/>
          </g>
        </g>
      </g>
    </g>
    <g id="Group_35959" data-name="Group 35959">
      <rect id="Rectangle_15452-8" data-name="Rectangle 15452-8" x="50" y="133" width="48" height="48" style="fill: #fff;opacity: 0"/>
      <g id="Group_27221-7" data-name="Group 27221-7">
        <line id="Line_1035-7" data-name="Line 1035-7" x1="65" y1="178" x2="83" y2="178" style="fill: none;stroke: #2ca01c;stroke-linecap: round;stroke-linejoin: round;stroke-width: 2px"/>
        <line id="Line_1036-7" data-name="Line 1036-7" x1="69" y1="172" x2="69" y2="178" style="fill: none;stroke: #2ca01c;stroke-linecap: round;stroke-linejoin: round;stroke-width: 2px"/>
        <line id="Line_1037-7" data-name="Line 1037-7" x1="79" y1="172" x2="79" y2="178" style="fill: none;stroke: #2ca01c;stroke-linecap: round;stroke-linejoin: round;stroke-width: 2px"/>
        <rect id="Rectangle_15644-7" data-name="Rectangle 15644-7" x="53" y="149" width="42" height="23" style="fill: #47b138;stroke: #2ca01c;stroke-linecap: round;stroke-linejoin: round;stroke-width: 2px"/>
        <path id="Path_29893-7" data-name="Path 29893-7" d="M83,168H57V136H77l6,6Z" style="fill: #fb0;stroke: #e59033;stroke-linecap: round;stroke-linejoin: round;stroke-width: 2px"/>
        <path id="Path_29894-7" data-name="Path 29894-7" d="M77,136l6,6H77Z" style="fill: #fb0;stroke: #e59033;stroke-linecap: round;stroke-linejoin: round;stroke-width: 2px"/>
        <line id="Line_1038-7" data-name="Line 1038-7" x1="60" y1="144" x2="62" y2="144" style="fill: none;stroke: #fff;stroke-linejoin: round;stroke-width: 2px"/>
        <line id="Line_1039-7" data-name="Line 1039-7" x1="60" y1="149" x2="62" y2="149" style="fill: none;stroke: #fff;stroke-linejoin: round;stroke-width: 2px"/>
        <line id="Line_1040-7" data-name="Line 1040-7" x1="60" y1="154" x2="62" y2="154" style="fill: none;stroke: #fff;stroke-linejoin: round;stroke-width: 2px"/>
        <line id="Line_1041-7" data-name="Line 1041-7" x1="64" y1="144" x2="70" y2="144" style="fill: none;stroke: #fff;stroke-linejoin: round;stroke-width: 2px"/>
        <line id="Line_1042-7" data-name="Line 1042-7" x1="64" y1="149" x2="70" y2="149" style="fill: none;stroke: #fff;stroke-linejoin: round;stroke-width: 2px"/>
        <line id="Line_1043-7" data-name="Line 1043-7" x1="64" y1="154" x2="70" y2="154" style="fill: none;stroke: #fff;stroke-linejoin: round;stroke-width: 2px"/>
        <circle id="Ellipse_3830-7" data-name="Ellipse 3830-7" cx="82.54" cy="155.24" r="9" style="fill: #fb0;stroke: #fff;stroke-linecap: round;stroke-linejoin: round;stroke-width: 2px"/>
        <g id="_24px_pen" data-name=" 24px pen">
          <g id="Group_35963" data-name="Group 35963">
            <path id="Path_67860" data-name="Path 67860" d="M87.42,152l-1.64-1.63a.41.41,0,0,0-.58,0l-1.14,1.14,2.22,2.22,1.14-1.15a.41.41,0,0,0,0-.58Z" style="fill: #fff"/>
            <path id="Path_67861" data-name="Path 67861" d="M83.48,152.08l-4,4a.29.29,0,0,0-.1.16l-.82,2.45a.41.41,0,0,0,.26.52l.13,0,.12,0,2.46-.82a.54.54,0,0,0,.16-.1l4-4Z" style="fill: #fff"/>
          </g>
        </g>
      </g>
    </g>
  </g>
</svg>
