<svg xmlns="http://www.w3.org/2000/svg" width="690" height="350" viewBox="0 0 690 350">
  <g id="qt_TongHop_TT88" transform="translate(-276 -180)">
    <rect id="Rectangle_20634" data-name="Rectangle 20634" width="690" height="350" transform="translate(276 180)" fill="#fff" opacity="0"/>
    <g id="Group_35982" data-name="Group 35982">
      <g id="Group_29011" data-name="Group 29011" transform="translate(372 414)">
        <g id="Rectangle_15781" data-name="Rectangle 15781" fill="#fb0" stroke="#e59033" stroke-miterlimit="10" stroke-width="2">
          <rect width="28" height="36" rx="2" stroke="none"/>
          <rect x="1" y="1" width="26" height="34" rx="1" fill="none"/>
        </g>
        <g id="Rectangle_15782" data-name="Rectangle 15782" transform="translate(4 4)" fill="#47b138" stroke="#2ca01c" stroke-linecap="round" stroke-linejoin="round" stroke-width="2">
          <rect width="28" height="36" rx="2" stroke="none"/>
          <rect x="1" y="1" width="26" height="34" rx="1" fill="none"/>
        </g>
        <g id="Rectangle_15783" data-name="Rectangle 15783" transform="translate(8 8)" fill="#fb0" stroke="#e59033" stroke-miterlimit="10" stroke-width="2">
          <rect width="28" height="36" rx="2" stroke="none"/>
          <rect x="1" y="1" width="26" height="34" rx="1" fill="none"/>
        </g>
        <g id="Group_27077" data-name="Group 27077" transform="translate(15.742 14)" opacity="0.5">
          <path id="Path_11120-2" data-name="Path 11120-2" d="M410,280h16v2H410Z" transform="translate(-410 -280)" fill="#fff"/>
          <path id="Path_11120-2-2" data-name="Path 11120-2" d="M410,284h16v2H410Z" transform="translate(-410 -280)" fill="#fff"/>
          <path id="Path_11120-2-3" data-name="Path 11120-2" d="M410,288h16v2H410Z" transform="translate(-410 -280)" fill="#fff"/>
          <path id="Path_11120-2-4" data-name="Path 11120-2" d="M410,292h16v2H410Z" transform="translate(-410 -280)" fill="#fff"/>
        </g>
        <g id="Group_27078" data-name="Group 27078" transform="translate(11.742 14)" opacity="0.5">
          <path id="Path_11120-2-5" data-name="Path 11120-2" d="M406,280h2v2h-2Z" transform="translate(-406 -280)" fill="#fff"/>
          <path id="Path_11120-2-6" data-name="Path 11120-2" d="M406,284h2v2h-2Z" transform="translate(-406 -280)" fill="#fff"/>
          <path id="Path_11120-2-7" data-name="Path 11120-2" d="M406,288h2v2h-2Z" transform="translate(-406 -280)" fill="#fff"/>
          <path id="Path_11120-2-8" data-name="Path 11120-2" d="M406,292h2v2h-2Z" transform="translate(-406 -280)" fill="#fff"/>
        </g>
        <g id="Rectangle_15784" data-name="Rectangle 15784" transform="translate(24 24)" fill="#47b138" stroke="#2ca01c" stroke-miterlimit="10" stroke-width="2">
          <rect width="20" height="20" rx="10" stroke="none"/>
          <rect x="1" y="1" width="18" height="18" rx="9" fill="none"/>
        </g>
        <circle id="Ellipse_3854" data-name="Ellipse 3854" cx="1" cy="1" r="1" transform="translate(30 33)" fill="#fff"/>
        <circle id="Ellipse_3855" data-name="Ellipse 3855" cx="1" cy="1" r="1" transform="translate(33 33)" fill="#fff"/>
        <circle id="Ellipse_3856" data-name="Ellipse 3856" cx="1" cy="1" r="1" transform="translate(36 33)" fill="#fff"/>
      </g>
      <g id="Group_29012" data-name="Group 29012" transform="translate(686.957 316)">
        <path id="Path_30284" data-name="Path 30284" d="M422,304H394V273.591a2,2,0,0,1,1.55-1.949l24.251-5.6a1.769,1.769,0,0,1,.4-.046h0a1.8,1.8,0,0,1,1.8,1.8Z" transform="translate(-393.713 -266)" fill="#915110"/>
        <path id="Path_30285" data-name="Path 30285" d="M426,307H394V273.81a2,2,0,0,1,1.8-1.99l28.1-2.811c.063-.006.127-.009.19-.009h0a1.905,1.905,0,0,1,1.9,1.9Z" transform="translate(-393.713 -266)" fill="#b7691c"/>
        <rect id="Rectangle_15785" data-name="Rectangle 15785" width="36" height="38" rx="2" transform="translate(0.043 6)" fill="#e59033"/>
        <path id="Path_30286" data-name="Path 30286" d="M429.628,277.164C427.438,295.778,414.11,305.171,396,310h0a2,2,0,0,1-2-2V274a2,2,0,0,1,2-2h32a2,2,0,0,1,2,2Z" transform="translate(-393.713 -266)" fill="#fb0"/>
        <path id="Path_30287" data-name="Path 30287" d="M404,280l-3-2-3,2v-8h6Z" transform="translate(-393.713 -266)" fill="#fff"/>
        <rect id="Rectangle_15786" data-name="Rectangle 15786" width="20" height="11" rx="2" transform="translate(4.043 18)" fill="#fff" opacity="0.5"/>
        <g id="Rectangle_15787" data-name="Rectangle 15787" transform="translate(20.043 20)" fill="#47b138" stroke="#2ca01c" stroke-miterlimit="10" stroke-width="2">
          <rect width="24" height="24" rx="3" stroke="none"/>
          <rect x="1" y="1" width="22" height="22" rx="2" fill="none"/>
        </g>
        <rect id="Rectangle_15788" data-name="Rectangle 15788" width="12" height="8" rx="2" transform="translate(26.043 31)" fill="none" stroke="#fff" stroke-linecap="round" stroke-linejoin="round" stroke-width="2"/>
        <path id="Path_30288" data-name="Path 30288" d="M422,297v-2a4,4,0,0,1,4-4h0a4,4,0,0,1,4,4v2" transform="translate(-393.713 -266)" fill="none" stroke="#fff" stroke-miterlimit="10" stroke-width="2"/>
        <rect id="Rectangle_15789" data-name="Rectangle 15789" width="2" height="2" transform="translate(31.043 34)" fill="#fff"/>
      </g>
      <g id="Group_29013" data-name="Group 29013" transform="translate(335 220)">
        <g id="Rectangle_15790" data-name="Rectangle 15790" fill="#fb0" stroke="#e59033" stroke-miterlimit="10" stroke-width="2">
          <rect width="28" height="36" rx="2" stroke="none"/>
          <rect x="1" y="1" width="26" height="34" rx="1" fill="none"/>
        </g>
        <g id="Rectangle_15791" data-name="Rectangle 15791" transform="translate(4 4)" fill="#47b138" stroke="#2ca01c" stroke-linecap="round" stroke-linejoin="round" stroke-width="2">
          <rect width="28" height="36" rx="2" stroke="none"/>
          <rect x="1" y="1" width="26" height="34" rx="1" fill="none"/>
        </g>
        <g id="Rectangle_15792" data-name="Rectangle 15792" transform="translate(8 8)" fill="#fb0" stroke="#e59033" stroke-miterlimit="10" stroke-width="2">
          <rect width="28" height="36" rx="2" stroke="none"/>
          <rect x="1" y="1" width="26" height="34" rx="1" fill="none"/>
        </g>
        <path id="Path_30311" data-name="Path 30311" d="M407,289h0a2,2,0,0,0,2,2h4a2,2,0,0,0,2-2v-.438a2,2,0,0,0-1.515-1.941l-4.97-1.242A2,2,0,0,1,407,283.438V283a2,2,0,0,1,2-2h4a2,2,0,0,1,2,2h0" transform="translate(-394 -266)" fill="none" stroke="#fff" stroke-linecap="round" stroke-miterlimit="10" stroke-width="2"/>
        <line id="Line_1144" data-name="Line 1144" y2="2" transform="translate(17 13)" fill="none" stroke="#fff" stroke-linecap="round" stroke-miterlimit="10" stroke-width="2"/>
        <line id="Line_1145" data-name="Line 1145" y2="2" transform="translate(17 25)" fill="none" stroke="#fff" stroke-linecap="round" stroke-miterlimit="10" stroke-width="2"/>
        <g id="Group_27086" data-name="Group 27086" transform="translate(16 30)" opacity="0.5">
          <path id="Path_11120-2-9" data-name="Path 11120-2" d="M410,296h16v2H410Z" transform="translate(-410 -296)" fill="#fff"/>
          <path id="Path_11120-2-10" data-name="Path 11120-2" d="M410,300h16v2H410Z" transform="translate(-410 -296)" fill="#fff"/>
          <path id="Path_11120-2-11" data-name="Path 11120-2" d="M410,304h16v2H410Z" transform="translate(-410 -296)" fill="#fff"/>
        </g>
        <g id="Group_27087" data-name="Group 27087" transform="translate(24 16)" opacity="0.5">
          <path id="Path_11120-2-12" data-name="Path 11120-2" d="M418,282h8v2h-8Z" transform="translate(-418 -282)" fill="#fff"/>
          <path id="Path_11120-2-13" data-name="Path 11120-2" d="M418,286h8v2h-8Z" transform="translate(-418 -282)" fill="#fff"/>
        </g>
        <g id="Group_27088" data-name="Group 27088" transform="translate(12 30)" opacity="0.5">
          <path id="Path_11120-2-14" data-name="Path 11120-2" d="M406,296h2v2h-2Z" transform="translate(-406 -296)" fill="#fff"/>
          <path id="Path_11120-2-15" data-name="Path 11120-2" d="M406,300h2v2h-2Z" transform="translate(-406 -296)" fill="#fff"/>
          <path id="Path_11120-2-16" data-name="Path 11120-2" d="M406,304h2v2h-2Z" transform="translate(-406 -296)" fill="#fff"/>
        </g>
        <g id="Rectangle_15793" data-name="Rectangle 15793" transform="translate(22 22)" fill="#47b138" stroke="#2ca01c" stroke-miterlimit="10" stroke-width="2">
          <rect width="22" height="22" rx="11" stroke="none"/>
          <rect x="1" y="1" width="20" height="20" rx="10" fill="none"/>
        </g>
        <g id="Group_27089" data-name="Group 27089" transform="translate(28 28)">
          <path id="Path_30312" data-name="Path 30312" d="M428,294v3.27a1.987,1.987,0,0,0-2,0V294Z" transform="translate(-422 -294)" fill="#fff"/>
          <path id="Path_30313" data-name="Path 30313" d="M427,301a2,2,0,0,0,1-.27V304h-2v-3.27A2,2,0,0,0,427,301Z" transform="translate(-422 -294)" fill="#fff"/>
          <path id="Path_30314" data-name="Path 30314" d="M424.13,296.24l1.86,1.04a1.717,1.717,0,0,0-.4.31,1.939,1.939,0,0,0-.59,1.36v.1l-.08-.05-1.79-1-1.13-.63,1.04-1.74Z" transform="translate(-422 -294)" fill="#fff"/>
          <path id="Path_30315" data-name="Path 30315" d="M432,300.63l-1.04,1.74-1.09-.61-1.86-1.04a1.717,1.717,0,0,0,.4-.31,1.939,1.939,0,0,0,.59-1.36v-.1l.08.05,1.79,1Z" transform="translate(-422 -294)" fill="#fff"/>
          <path id="Path_30316" data-name="Path 30316" d="M425.99,300.72l-1.86,1.04-1.09.61L422,300.63l1.13-.63,1.79-1,.08-.05v.1A2,2,0,0,0,425.99,300.72Z" transform="translate(-422 -294)" fill="#fff"/>
          <path id="Path_30317" data-name="Path 30317" d="M432,297.37l-1.13.63-1.79,1-.08.05v-.1a1.939,1.939,0,0,0-.59-1.36,1.717,1.717,0,0,0-.4-.31l1.86-1.04,1.09-.61Z" transform="translate(-422 -294)" fill="#fff"/>
          <path id="Path_30318" data-name="Path 30318" d="M430.87,298a3.826,3.826,0,0,0-1-1.76.266.266,0,0,0-.05-.06,3.923,3.923,0,0,0-1.82-1.05,3.911,3.911,0,0,0-2,0,3.923,3.923,0,0,0-1.82,1.05.266.266,0,0,0-.05.06,3.826,3.826,0,0,0-1,1.76,3.911,3.911,0,0,0,0,2,3.826,3.826,0,0,0,1,1.76,3.877,3.877,0,0,0,1.87,1.11,3.911,3.911,0,0,0,2,0,3.923,3.923,0,0,0,1.82-1.05.266.266,0,0,0,.05-.06,3.826,3.826,0,0,0,1-1.76,3.911,3.911,0,0,0,0-2ZM428,300.72v.01a1.987,1.987,0,0,1-2,0v-.01h-.01a2,2,0,0,1-.99-1.67v-.1a1.939,1.939,0,0,1,.59-1.36,1.717,1.717,0,0,1,.4-.31H426v-.01a1.987,1.987,0,0,1,2,0v.01h.01a1.717,1.717,0,0,1,.4.31,1.939,1.939,0,0,1,.59,1.36v.1a1.939,1.939,0,0,1-.59,1.36,1.717,1.717,0,0,1-.4.31Z" transform="translate(-422 -294)" fill="#fff"/>
          <path id="Path_30319" data-name="Path 30319" d="M430.87,298a3.826,3.826,0,0,0-1-1.76.266.266,0,0,0-.05-.06,3.923,3.923,0,0,0-1.82-1.05,3.911,3.911,0,0,0-2,0,3.923,3.923,0,0,0-1.82,1.05.266.266,0,0,0-.05.06,3.826,3.826,0,0,0-1,1.76,3.911,3.911,0,0,0,0,2,3.826,3.826,0,0,0,1,1.76,3.877,3.877,0,0,0,1.87,1.11,3.911,3.911,0,0,0,2,0,3.923,3.923,0,0,0,1.82-1.05.266.266,0,0,0,.05-.06,3.826,3.826,0,0,0,1-1.76,3.911,3.911,0,0,0,0-2ZM428,300.72v.01a1.987,1.987,0,0,1-2,0v-.01h-.01a2,2,0,0,1-.99-1.67v-.1a1.939,1.939,0,0,1,.59-1.36,1.717,1.717,0,0,1,.4-.31H426v-.01a1.987,1.987,0,0,1,2,0v.01h.01a1.717,1.717,0,0,1,.4.31,1.939,1.939,0,0,1,.59,1.36v.1a1.939,1.939,0,0,1-.59,1.36,1.717,1.717,0,0,1-.4.31Z" transform="translate(-422 -294)" fill="#fff"/>
          <path id="Path_30320" data-name="Path 30320" d="M425.99,300.72H426v.01Z" transform="translate(-422 -294)" fill="#fff"/>
          <path id="Path_30321" data-name="Path 30321" d="M428,300.73v-.01h.01Z" transform="translate(-422 -294)" fill="#fff"/>
        </g>
      </g>
      <g id="Group_29014" data-name="Group 29014" transform="translate(124 50)">
        <path id="Path_30341" data-name="Path 30341" d="M431,309H401V267h24l6,6Z" fill="#fb0" stroke="#e59033" stroke-linecap="round" stroke-linejoin="round" stroke-width="2"/>
        <path id="Path_30342" data-name="Path 30342" d="M425,267l6,6h-6Z" fill="#fb0" stroke="#e59033" stroke-linecap="round" stroke-linejoin="round" stroke-width="2"/>
        <g id="Group_27133" data-name="Group 27133" opacity="0.1">
          <g id="Path_11120-2-17" data-name="Path 11120-2">
            <path id="Path_30343" data-name="Path 30343" d="M404,272h12v2H404Z" fill="#fff"/>
          </g>
          <g id="Path_11120-2-18" data-name="Path 11120-2">
            <path id="Path_30344" data-name="Path 30344" d="M408,282h12v2H408Z" fill="#fff"/>
          </g>
          <g id="Path_11120-2-19" data-name="Path 11120-2">
            <path id="Path_30345" data-name="Path 30345" d="M408,286h12v2H408Z" fill="#fff"/>
          </g>
          <g id="Path_11120-2-20" data-name="Path 11120-2">
            <path id="Path_30346" data-name="Path 30346" d="M404,282h2v2h-2Z" fill="#fff"/>
          </g>
          <g id="Path_11120-2-21" data-name="Path 11120-2">
            <path id="Path_30347" data-name="Path 30347" d="M404,286h2v2h-2Z" fill="#fff"/>
          </g>
          <g id="Path_11120-2-22" data-name="Path 11120-2">
            <path id="Path_30348" data-name="Path 30348" d="M408,290h12v2H408Z" fill="#fff"/>
          </g>
          <g id="Path_11120-2-23" data-name="Path 11120-2">
            <path id="Path_30349" data-name="Path 30349" d="M408,294h12v2H408Z" fill="#fff"/>
          </g>
          <g id="Path_11120-2-24" data-name="Path 11120-2">
            <path id="Path_30350" data-name="Path 30350" d="M404,290h2v2h-2Z" fill="#fff"/>
          </g>
          <g id="Path_11120-2-25" data-name="Path 11120-2">
            <path id="Path_30351" data-name="Path 30351" d="M404,294h2v2h-2Z" fill="#fff"/>
          </g>
          <g id="Path_11120-2-26" data-name="Path 11120-2">
            <path id="Path_30352" data-name="Path 30352" d="M408,298h12v2H408Z" fill="#fff"/>
          </g>
          <g id="Path_11120-2-27" data-name="Path 11120-2">
            <path id="Path_30353" data-name="Path 30353" d="M404,298h2v2h-2Z" fill="#fff"/>
          </g>
          <g id="Path_11120-2-28" data-name="Path 11120-2">
            <path id="Path_30354" data-name="Path 30354" d="M404,276h8v2h-8Z" fill="#fff"/>
          </g>
          <g id="Path_11120-2-29" data-name="Path 11120-2">
            <path id="Path_30355" data-name="Path 30355" d="M408,302h12v2H408Z" fill="#fff"/>
          </g>
          <g id="Path_11120-2-30" data-name="Path 11120-2">
            <path id="Path_30356" data-name="Path 30356" d="M404,302h2v2h-2Z" fill="#fff"/>
          </g>
        </g>
        <rect id="Rectangle_15822" data-name="Rectangle 15822" width="18" height="18" rx="3.6" transform="translate(395 287)" fill="#fff" stroke="#e59033" stroke-linecap="round" stroke-linejoin="round" stroke-width="2"/>
        <path id="Path_30357" data-name="Path 30357" d="M409,299l-4-4-4,2-2-4" fill="none" stroke="#e59033" stroke-linecap="round" stroke-linejoin="round" stroke-width="2"/>
        <path id="Path_30358" data-name="Path 30358" d="M409,295v4h-4" fill="none" stroke="#e59033" stroke-linecap="round" stroke-linejoin="round" stroke-width="2"/>
        <path id="Path_30359" data-name="Path 30359" d="M410,278v4h4" fill="none" stroke="#fff" stroke-linecap="round" stroke-linejoin="round" stroke-width="2"/>
        <rect id="Rectangle_15823" data-name="Rectangle 15823" width="18" height="18" rx="3.6" transform="translate(420 271)" fill="#fff" stroke="#2ca01c" stroke-linecap="round" stroke-linejoin="round" stroke-width="2"/>
        <path id="Path_30360" data-name="Path 30360" d="M434,277l-4,4-4-2-2,4" fill="none" stroke="#2ca01c" stroke-linecap="round" stroke-linejoin="round" stroke-width="2"/>
        <path id="Path_30361" data-name="Path 30361" d="M434,281v-4h-4" fill="none" stroke="#2ca01c" stroke-linecap="round" stroke-linejoin="round" stroke-width="2"/>
        <path id="Path_30362" data-name="Path 30362" d="M423,299v-4h-4" fill="none" stroke="#fff" stroke-linecap="round" stroke-linejoin="round" stroke-width="2"/>
      </g>
      <line id="Line_1223" data-name="Line 1223" y2="30" transform="translate(355.5 329.5)" fill="none" stroke="#b4c8b1" stroke-width="2"/>
      <line id="Line_1232" data-name="Line 1232" y2="30" transform="translate(392.5 359.5)" fill="none" stroke="#b4c8b1" stroke-width="2"/>
      <line id="Line_1224" data-name="Line 1224" x2="120" transform="translate(354.5 359.5)" fill="none" stroke="#b4c8b1" stroke-width="2"/>
      <line id="Line_1230" data-name="Line 1230" x2="150" transform="translate(768.5 359.5)" fill="none" stroke="#b4c8b1" stroke-width="2"/>
      <line id="Line_1229" data-name="Line 1229" x2="50" transform="translate(599.5 359.5)" fill="none" stroke="#b4c8b1" stroke-width="2"/>
      <path id="Path_30412" data-name="Path 30412" d="M568,170l5,5-5,5" transform="translate(-98.5 184.5)" fill="none" stroke="#b4c8b1" stroke-miterlimit="10" stroke-width="2"/>
      <path id="Path_30416" data-name="Path 30416" d="M568,170l5,5-5,5" transform="translate(76.5 184.5)" fill="none" stroke="#b4c8b1" stroke-miterlimit="10" stroke-width="2"/>
      <path id="Path_30417" data-name="Path 30417" d="M568,170l5,5-5,5" transform="translate(346.5 184.5)" fill="none" stroke="#b4c8b1" stroke-miterlimit="10" stroke-width="2"/>
    </g>
  </g>
</svg>
